<svg xmlns="http://www.w3.org/2000/svg" width="400" height="400"><g fill-rule="evenodd"><path fill="#04b444" d="M88.4 107.773c0 .315-.36.687-.8.827-.44.14-.8.512-.8.827 0 .315-.36.573-.8.573-.533 0-.8.267-.8.8s-.267.8-.8.8-.8.267-.8.8-.267.8-.8.8-.8.267-.8.8-.267.8-.8.8-.8.267-.8.8-.267.8-.8.8-.8.267-.8.8-.267.8-.8.8-.8.267-.8.8-.267.8-.8.8-.8.267-.8.8c0 .444-.267.8-.6.8-.333 0-.6.356-.6.8 0 .533-.267.8-.8.8s-.8.267-.8.8-.267.8-.8.8c-.444 0-.8.267-.8.6 0 .333-.356.6-.8.6-.533 0-.8.267-.8.8s-.267.8-.8.8-.8.267-.8.8-.267.8-.8.8-.8.267-.8.8-.267.8-.8.8-.8.267-.8.8-.267.8-.8.8-.8.267-.8.8-.267.8-.8.8-.8.267-.8.8-.267.8-.8.8-.8.267-.8.8c0 .44-.258.8-.573.8-.315 0-.687.36-.827.8-.14.44-.512.8-.827.8-.315 0-.573.36-.573.8 0 .533-.267.8-.8.8s-.8.267-.8.8-.267.8-.8.8c-.444 0-.8.267-.8.6 0 .333-.356.6-.8.6-.533 0-.8.267-.8.8s-.267.8-.8.8-.8.267-.8.8-.267.8-.8.8-.8.267-.8.8-.267.8-.8.8-.8.267-.8.8-.267.8-.8.8-.8.267-.8.8-.267.8-.8.8-.8.267-.8.8-.267.8-.8.8-.8.267-.8.8c0 .444-.267.8-.6.8-.333 0-.6.356-.6.8 0 .533-.267.8-.8.8s-.8.267-.8.8-.267.8-.8.8c-.44 0-.8.258-.8.573 0 .315-.36.687-.8.827-.44.14-.8.512-.8.827 0 .315-.36.573-.8.573-.533 0-.8.267-.8.8s-.267.8-.8.8-.8.267-.8.8-.267.8-.8.8-.8.267-.8.8-.267.8-.8.8-.8.267-.8.8-.267.8-.8.8-.8.267-.8.8-.267.8-.8.8-.8.267-.8.8-.267.8-.8.8-.8.267-.8.8c0 .444-.267.8-.6.8-.333 0-.6.356-.6.8 0 .533-.267.8-.8.8s-.8.267-.8.8-.267.8-.8.8c-.444 0-.8.267-.8.6 0 .333-.356.6-.8.6-.533 0-.8.267-.8.8s-.267.8-.8.8-.8.267-.8.8-.267.8-.8.8-.8.267-.8.8-.267.8-.8.8-.8.267-.8.8-.267.8-.8.8-.8.267-.8.8-.267.8-.8.8-.8.267-.8.8-.267.8-.8.8-.8.267-.8.8c0 .44-.258.8-.573.8-.315 0-.687.36-.827.8-.14.44-.512.8-.827.8-.315 0-.573.36-.573.8 0 .533-.267.8-.8.8s-.8.267-.8.8-.267.8-.8.8c-.444 0-.8.267-.8.6 0 .333-.356.6-.8.6-.533 0-.8.267-.8.8s-.267.8-.8.8c-.762 0-.8.267-.8 5.6 0 5.333.038 5.6.8 5.6.648 0 .8.267.8 1.4 0 1.104.159 1.4.753 1.4.417 0 .847.357.963.8.16.613.546.8 1.647.8 1.17 0 1.437.148 1.437.8 0 .44.251.8.557.8.618 0 1.043.843 1.043 2.07 0 .455.331.892.763 1.004.42.11.853.543.963.963.142.543.555.763 1.437.763.97 0 1.237.172 1.237.8 0 .533.267.8.8.8.593 0 .8.267.8 1.031 0 1.317 1.956 3.3 3.574 3.624 1.038.207 1.226.427 1.226 1.432 0 .832.228 1.248.763 1.387.42.11.853.543.963.963.149.572.559.763 1.637.763 1.17 0 1.437.148 1.437.8 0 .44.25.8.555.8.322 0 .67.609.827 1.444.172.919.539 1.515 1.007 1.637.406.106.827.536.937.956.142.543.555.763 1.437.763.97 0 1.237.172 1.237.8 0 .533.267.8.8.8.628 0 .8.267.8 1.237 0 .882.22 1.295.763 1.437.42.11.85.531.956.937.122.468.718.835 1.637 1.007.794.149 1.444.509 1.444.8 0 .29.36.642.8.782.568.18.8.605.8 1.464 0 .855.224 1.27.763 1.41.42.11.853.543.963.963.142.543.555.763 1.437.763.97 0 1.237.172 1.237.8 0 .508.267.8.729.8.511 0 .841.45 1.1 1.5.323 1.307.538 1.516 1.671 1.625.976.094 1.3.319 1.3.9 0 .508.275.775.8.775.628 0 .8.267.8 1.237 0 .882.22 1.295.763 1.437.42.11.85.531.956.937.122.468.718.835 1.637 1.007.835.157 1.444.505 1.444.827 0 .305.36.555.8.555.652 0 .8.267.8 1.437 0 1.078.191 1.488.763 1.637.42.11.853.543.963.963.142.543.555.763 1.437.763.97 0 1.237.172 1.237.8 0 .516.267.8.75.8.522 0 .827.385 1.003 1.267.304 1.519 2.425 3.533 3.719 3.533.661 0 .928.23.928.8 0 .533.267.8.8.8.624 0 .8.267.8 1.213 0 1.3.629 1.725 2.9 1.956.165.017.3.301.3.631 0 .333.356.6.8.6.652 0 .8.267.8 1.437 0 1.078.191 1.488.763 1.637.42.11.853.543.963.963.142.543.555.763 1.437.763.97 0 1.237.172 1.237.8 0 .516.267.8.75.8.522 0 .827.385 1.003 1.267.304 1.519 2.425 3.533 3.719 3.533.661 0 .928.23.928.8 0 .533.267.8.8.8.628 0 .8.267.8 1.237 0 .882.22 1.295.763 1.437.42.11.853.543.963.963.149.572.559.763 1.637.763 1.17 0 1.437.148 1.437.8 0 .648.267.8 1.4.8s1.4-.152 1.4-.8c0-.533.267-.8.8-.8.44 0 .8-.258.8-.573 0-.315.36-.687.8-.827.44-.14.8-.512.8-.827 0-.315.36-.573.8-.573.533 0 .8-.267.8-.8s.267-.8.8-.8.8-.267.8-.8.267-.8.8-.8.8-.267.8-.8.267-.8.8-.8.8-.267.8-.8.267-.8.8-.8.8-.267.8-.8.267-.8.8-.8.8-.267.8-.8.267-.8.8-.8.8-.267.8-.8c0-.444.267-.8.6-.8.333 0 .6-.356.6-.8 0-.533.267-.8.8-.8s.8-.267.8-.8.267-.8.8-.8c.444 0 .8-.267.8-.6 0-.333.356-.6.8-.6.533 0 .8-.267.8-.8s.267-.8.8-.8.8-.267.8-.8.267-.8.8-.8.8-.267.8-.8.267-.8.8-.8.8-.267.8-.8.267-.8.8-.8.8-.267.8-.8.267-.8.8-.8.8-.267.8-.8.267-.8.8-.8.8-.267.8-.8.267-.8.8-.8.8-.267.8-.8c0-.444.267-.8.6-.8.333 0 .6-.356.6-.8 0-.533.267-.8.8-.8s.8-.267.8-.8.267-.8.8-.8c.444 0 .8-.267.8-.6 0-.333.356-.6.8-.6.533 0 .8-.267.8-.8s.267-.8.8-.8.8-.267.8-.8.267-.8.8-.8.8-.267.8-.8.267-.8.8-.8.8-.267.8-.8.267-.8.8-.8.8-.267.8-.8.267-.8.8-.8.8-.267.8-.8.267-.8.8-.8.8-.267.8-.8c0-.44.258-.8.573-.8.315 0 .687-.36.827-.8.14-.44.512-.8.827-.8.315 0 .573-.36.573-.8 0-.533.267-.8.8-.8.44 0 .8-.258.8-.573 0-.315.36-.687.8-.827.44-.14.8-.512.8-.827 0-.315.36-.573.8-.573.533 0 .8-.267.8-.8s.267-.8.8-.8.8-.267.8-.8.267-.8.8-.8.8-.267.8-.8.267-.8.8-.8.8-.267.8-.8.267-.8.8-.8.8-.267.8-.8.267-.8.8-.8.8-.267.8-.8.267-.8.8-.8.8-.267.8-.8c0-.444.267-.8.6-.8.333 0 .6-.356.6-.8 0-.533.267-.8.8-.8s.8-.267.8-.8.267-.8.8-.8c.444 0 .8-.267.8-.6 0-.333.356-.6.8-.6.533 0 .8-.267.8-.8s.267-.8.8-.8.8-.267.8-.8.267-.8.8-.8.8-.267.8-.8.267-.8.8-.8c.711 0 .8-.267.8-2.4s-.089-2.4-.8-2.4c-.533 0-.8-.267-.8-.8s-.267-.8-.8-.8-.8-.267-.8-.8-.267-.8-.8-.8-.8-.267-.8-.8-.267-.8-.8-.8c-.44 0-.8-.258-.8-.573 0-.315-.36-.687-.8-.827-.44-.14-.8-.512-.8-.827 0-.315-.36-.573-.8-.573-.533 0-.8-.267-.8-.8 0-.444-.267-.8-.6-.8-.493 0-.6-.711-.6-4s.107-4 .6-4c.433 0 .6-.444.6-1.6 0-1.333.133-1.6.8-1.6.533 0 .8-.267.8-.8s.267-.8.8-.8c.44 0 .8-.258.8-.573 0-.315.36-.687.8-.827.44-.14.8-.512.8-.827 0-.315.36-.573.8-.573.533 0 .8-.267.8-.8s.267-.8.8-.8c.733 0 .8-.267.8-3.2 0-2.933-.067-3.2-.8-3.2-.533 0-.8-.267-.8-.8s-.267-.8-.8-.8-.8-.267-.8-.8-.267-.8-.8-.8-.8-.267-.8-.8-.267-.8-.8-.8-.8-.267-.8-.8-.267-.8-.8-.8c-.444 0-.8-.267-.8-.6 0-.33-.27-.6-.6-.6-.333 0-.6-.356-.6-.8 0-.533-.267-.8-.8-.8s-.8-.267-.8-.8-.267-.8-.8-.8-.8-.267-.8-.8-.267-.8-.8-.8-.8-.267-.8-.8-.267-.8-.8-.8-.8-.267-.8-.8-.267-.8-.8-.8-.8-.267-.8-.8-.267-.8-.8-.8-.8-.267-.8-.8-.267-.8-.8-.8-.8-.267-.8-.8-.267-.8-.8-.8-.8-.267-.8-.8-.267-.8-.8-.8c-.44 0-.8-.172-.8-.382 0-.496-1.922-2.418-2.418-2.418-.21 0-.382-.36-.382-.8 0-.533-.267-.8-.8-.8s-.8-.267-.8-.8-.267-.8-.8-.8-.8-.267-.8-.8-.267-.8-.8-.8-.8-.267-.8-.8-.267-.8-.8-.8-.8-.267-.8-.8-.267-.8-.8-.8-.8-.267-.8-.8-.267-.8-.8-.8-.8-.267-.8-.8-.267-.8-.8-.8-.8-.267-.8-.8-.267-.8-.8-.8-.8-.267-.8-.8-.267-.8-.8-.8c-.444 0-.8-.267-.8-.6 0-.33-.27-.6-.6-.6-.333 0-.6-.356-.6-.8 0-.533-.267-.8-.8-.8s-.8-.267-.8-.8-.267-.8-.8-.8-.8-.267-.8-.8-.267-.8-.8-.8-.8-.267-.8-.8-.267-.8-.8-.8-.8-.267-.8-.8-.267-.8-.8-.8-.8-.267-.8-.8-.267-.8-.8-.8-.8-.267-.8-.8-.267-.8-.8-.8-.8-.267-.8-.8-.267-.8-.8-.8-.8-.267-.8-.8-.267-.8-.8-.8-.8-.267-.8-.8-.267-.8-.8-.8c-.444 0-.8-.267-.8-.6 0-.33-.27-.6-.6-.6-.333 0-.6-.356-.6-.8 0-.533-.267-.8-.8-.8s-.8-.267-.8-.8-.267-.8-.8-.8-.8-.267-.8-.8-.267-.8-.8-.8-.8-.267-.8-.8-.267-.8-.8-.8-.8-.267-.8-.8-.267-.8-.8-.8-.8-.267-.8-.8-.267-.8-.8-.8-.8-.267-.8-.8-.267-.8-.8-.8-.8-.267-.8-.8-.267-.8-.8-.8-.8-.267-.8-.8-.267-.8-.8-.8c-.44 0-.8-.172-.8-.382 0-.21-.458-.84-1.018-1.4-1.133-1.133-3.382-1.429-3.382-.445"/><path fill="#04a4ec" d="M194.4 1.6c0 .533-.267.8-.8.8s-.8.267-.8.8c0 .444-.267.8-.6.8-.333 0-.6.356-.6.8 0 .533-.267.8-.8.8s-.8.267-.8.8-.267.8-.8.8c-.44 0-.8.258-.8.573 0 .315-.36.687-.8.827-.44.14-.8.512-.8.827 0 .315-.36.573-.8.573-.533 0-.8.267-.8.8s-.267.8-.8.8-.8.267-.8.8-.267.8-.8.8-.8.267-.8.8-.267.8-.8.8-.8.267-.8.8-.267.8-.8.8-.8.267-.8.8-.267.8-.8.8-.8.267-.8.8-.267.8-.8.8-.8.267-.8.8c0 .444-.267.8-.6.8-.333 0-.6.356-.6.8 0 .533-.267.8-.8.8s-.8.267-.8.8-.267.8-.8.8c-.444 0-.8.267-.8.6 0 .333-.356.6-.8.6-.533 0-.8.267-.8.8s-.267.8-.8.8-.8.267-.8.8-.267.8-.8.8-.8.267-.8.8-.267.8-.8.8-.8.267-.8.8-.267.8-.8.8-.8.267-.8.8-.267.8-.8.8-.8.267-.8.8-.267.8-.8.8-.8.267-.8.8c0 .44-.258.8-.573.8-.315 0-.687.36-.827.8-.14.44-.512.8-.827.8-.315 0-.573.36-.573.8 0 .533-.267.8-.8.8s-.8.267-.8.8-.267.8-.8.8c-.444 0-.8.267-.8.6 0 .333-.356.6-.8.6-.533 0-.8.267-.8.8s-.267.8-.8.8-.8.267-.8.8-.267.8-.8.8-.8.267-.8.8-.267.8-.8.8-.8.267-.8.8-.267.8-.8.8-.8.267-.8.8-.267.8-.8.8-.8.267-.8.8-.267.8-.8.8-.8.267-.8.8c0 .444-.267.8-.6.8-.333 0-.6.356-.6.8 0 .533-.267.8-.8.8s-.8.267-.8.8-.267.8-.8.8c-.44 0-.8.258-.8.573 0 .315-.36.687-.8.827-.44.14-.8.512-.8.827 0 .315-.36.573-.8.573-.533 0-.8.267-.8.8s-.267.8-.8.8-.8.267-.8.8-.267.8-.8.8-.8.267-.8.8-.267.8-.8.8-.8.267-.8.8-.267.8-.8.8-.8.267-.8.8-.267.8-.8.8-.8.267-.8.8-.267.8-.8.8-.8.267-.8.8c0 .444-.267.8-.6.8-.333 0-.6.356-.6.8 0 .533-.267.8-.8.8s-.8.267-.8.8-.267.8-.8.8c-.444 0-.8.267-.8.6 0 .333-.356.6-.8.6-.533 0-.8.267-.8.8s-.267.8-.8.8-.8.267-.8.8-.267.8-.8.8-.8.267-.8.8-.267.8-.8.8-.8.267-.8.8-.267.8-.8.8-.8.267-.8.8-.267.8-.8.8-.8.267-.8.8-.267.8-.8.8-.8.267-.8.8c0 .44-.258.8-.573.8-.315 0-.687.36-.827.8-.14.44-.512.8-.827.8-.315 0-.573.36-.573.8 0 .533-.267.8-.8.8-.703 0-.8.267-.8 2.2 0 1.933.097 2.2.8 2.2.533 0 .8.267.8.8 0 .44.258.8.573.8.315 0 .687.36.827.8.14.44.512.8.827.8.315 0 .573.36.573.8 0 .533.267.8.8.8s.8.267.8.8.267.8.8.8.8.267.8.8.267.8.8.8.8.267.8.8.267.8.8.8.8.267.8.8.267.8.8.8.8.267.8.8.267.8.8.8c.444 0 .8.267.8.6 0 .333.356.6.8.6.533 0 .8.267.8.8s.267.8.8.8.8.267.8.8.267.8.8.8.8.267.8.8c0 .44.249.8.553.8.305 0 .648.36.763.8.115.44.496.8.847.8.37 0 .637.335.637.8 0 .533.267.8.8.8s.8.267.8.8.267.8.8.8.8.267.8.8.267.8.8.8.8.267.8.8.267.8.8.8.8.267.8.8c0 .517.267.8.753.8.417 0 .847.357.963.8.115.44.496.8.847.8.35 0 .637.27.637.6 0 .333.356.6.8.6.533 0 .8.267.8.8s.267.8.8.8.8.267.8.8.267.8.8.8.8.267.8.8c0 .444.267.8.6.8.333 0 .6.356.6.8 0 .533.267.8.8.8s.8.267.8.8.267.8.8.8.8.267.8.8.267.8.8.8.8.267.8.8.267.8.8.8.8.267.8.8.267.8.8.8.8.267.8.8.267.8.8.8c.44 0 .8.258.8.573 0 .315.36.687.8.827.44.14.8.512.8.827 0 .315.36.573.8.573.533 0 .8.267.8.8s.267.8.8.8.8.267.8.8c0 .44.258.8.573.8.315 0 .687.36.827.8.14.44.512.8.827.8.315 0 .573.36.573.8 0 .533.267.8.8.8s.8.267.8.8.267.8.8.8.8.267.8.8.267.8.8.8.8.267.8.8.267.8.8.8.8.267.8.8.267.8.8.8.8.267.8.8.267.8.8.8c.444 0 .8.267.8.6 0 .333.356.6.8.6.533 0 .8.267.8.8s.267.8.8.8.8.267.8.8.267.8.8.8.8.267.8.8c0 .444.267.8.6.8.33 0 .6.287.6.637 0 .351.36.732.8.847.443.116.8.546.8.963 0 .486.283.753.8.753.533 0 .8.267.8.8s.267.8.8.8.8.267.8.8c0 .711.267.8 2.4.8s2.4-.089 2.4-.8c0-.533.267-.8.8-.8s.8-.267.8-.8.267-.8.8-.8.8-.267.8-.8.267-.8.8-.8.8-.267.8-.8c0-.44.258-.8.573-.8.315 0 .687-.36.827-.8.14-.44.512-.8.827-.8.315 0 .573-.36.573-.8 0-.533.267-.8.8-.8s.8-.267.8-.8c0-.756.267-.8 4.8-.8 4.533 0 4.8.044 4.8.8 0 .533.267.8.8.8s.8.267.8.8.267.8.8.8.8.267.8.8c0 .44.258.8.573.8.315 0 .687.36.827.8.14.44.512.8.827.8.315 0 .573.36.573.8 0 .533.267.8.8.8s.8.267.8.8.267.8.8.8.8.267.8.8c0 .711.267.8 2.4.8s2.4-.089 2.4-.8c0-.533.267-.8.8-.8s.8-.267.8-.8.267-.8.8-.8.8-.267.8-.8.267-.8.8-.8.8-.267.8-.8.267-.8.8-.8.8-.267.8-.8c0-.444.267-.8.6-.8.333 0 .6-.356.6-.8 0-.533.267-.8.8-.8s.8-.267.8-.8.267-.8.8-.8c.444 0 .8-.267.8-.6 0-.333.356-.6.8-.6.533 0 .8-.267.8-.8s.267-.8.8-.8.8-.267.8-.8.267-.8.8-.8.8-.267.8-.8.267-.8.8-.8.8-.267.8-.8.267-.8.8-.8.8-.267.8-.8.267-.8.8-.8.8-.267.8-.8.267-.8.8-.8.8-.267.8-.8c0-.44.258-.8.573-.8.315 0 .687-.36.827-.8.14-.44.512-.8.827-.8.315 0 .573-.36.573-.8 0-.533.267-.8.8-.8.44 0 .8-.258.8-.573 0-.315.36-.687.8-.827.44-.14.8-.512.8-.827 0-.315.36-.573.8-.573.533 0 .8-.267.8-.8s.267-.8.8-.8.8-.267.8-.8.267-.8.8-.8.8-.267.8-.8.267-.8.8-.8.8-.267.8-.8.267-.8.8-.8.8-.267.8-.8.267-.8.8-.8.8-.267.8-.8.267-.8.8-.8.8-.267.8-.8c0-.444.267-.8.6-.8.333 0 .6-.356.6-.8 0-.533.267-.8.8-.8s.8-.267.8-.8.267-.8.8-.8c.444 0 .8-.267.8-.6 0-.333.356-.6.8-.6.533 0 .8-.267.8-.8s.267-.8.8-.8.8-.267.8-.8.267-.8.8-.8.8-.267.8-.8.267-.8.8-.8.8-.267.8-.8.267-.8.8-.8.8-.267.8-.8.267-.8.8-.8.8-.267.8-.8.267-.8.8-.8.8-.267.8-.8.267-.8.8-.8.8-.267.8-.8c0-.444.267-.8.6-.8.333 0 .6-.356.6-.8 0-.533.267-.8.8-.8s.8-.267.8-.8.267-.8.8-.8c.444 0 .8-.267.8-.6 0-.333.356-.6.8-.6.533 0 .8-.267.8-.8s.267-.8.8-.8.8-.267.8-.8.267-.8.8-.8.8-.267.8-.8.267-.8.8-.8.8-.267.8-.8.267-.8.8-.8.8-.267.8-.8.267-.8.8-.8.8-.267.8-.8.267-.8.8-.8.8-.267.8-.8c0-.44.258-.8.573-.8.315 0 .687-.36.827-.8.14-.44.512-.8.827-.8.315 0 .573-.36.573-.8 0-.533.267-.8.8-.8.648 0 .8-.267.8-1.4s-.152-1.4-.8-1.4c-.533 0-.8-.267-.8-.8 0-.44-.258-.8-.573-.8-.315 0-.687-.36-.827-.8-.14-.44-.512-.8-.827-.8-.315 0-.573-.36-.573-.8 0-.533-.267-.8-.8-.8s-.8-.267-.8-.8-.267-.8-.8-.8-.8-.267-.8-.8-.267-.8-.8-.8-.8-.267-.8-.8-.267-.8-.8-.8-.8-.267-.8-.8-.267-.8-.8-.8-.8-.267-.8-.8-.267-.8-.8-.8-.8-.267-.8-.8-.267-.8-.8-.8c-.444 0-.8-.267-.8-.6 0-.333-.356-.6-.8-.6-.533 0-.8-.267-.8-.8s-.267-.8-.8-.8-.8-.267-.8-.8c0-.444-.267-.8-.6-.8-.333 0-.6-.356-.6-.8 0-.533-.267-.8-.8-.8s-.8-.267-.8-.8-.267-.8-.8-.8-.8-.267-.8-.8-.267-.8-.8-.8-.8-.267-.8-.8-.267-.8-.8-.8-.8-.267-.8-.8-.267-.8-.8-.8-.8-.267-.8-.8-.267-.8-.8-.8-.8-.267-.8-.8-.267-.8-.8-.8c-.44 0-.8-.258-.8-.573 0-.315-.36-.687-.8-.827-.44-.14-.8-.512-.8-.827 0-.315-.36-.573-.8-.573-.533 0-.8-.267-.8-.8s-.267-.8-.8-.8-.8-.267-.8-.8c0-.444-.267-.8-.6-.8-.333 0-.6-.356-.6-.8 0-.533-.267-.8-.8-.8s-.8-.267-.8-.8-.267-.8-.8-.8-.8-.267-.8-.8-.267-.8-.8-.8-.8-.267-.8-.8-.267-.8-.8-.8-.8-.267-.8-.8-.267-.8-.8-.8-.8-.267-.8-.8-.267-.8-.8-.8-.8-.267-.8-.8-.267-.8-.8-.8c-.444 0-.8-.267-.8-.6 0-.333-.356-.6-.8-.6-.533 0-.8-.267-.8-.8s-.267-.8-.8-.8-.8-.267-.8-.8c0-.44-.258-.8-.573-.8-.315 0-.687-.36-.827-.8-.14-.44-.512-.8-.827-.8-.315 0-.573-.36-.573-.8 0-.533-.267-.8-.8-.8s-.8-.267-.8-.8-.267-.8-.8-.8-.8-.267-.8-.8-.267-.8-.8-.8-.8-.267-.8-.8-.267-.8-.8-.8-.8-.267-.8-.8-.267-.8-.8-.8-.8-.267-.8-.8-.267-.8-.8-.8-.8-.267-.8-.8-.267-.8-.8-.8c-.444 0-.8-.267-.8-.6 0-.333-.356-.6-.8-.6-.533 0-.8-.267-.8-.8s-.267-.8-.8-.8-.8-.267-.8-.8c0-.444-.267-.8-.6-.8-.333 0-.6-.356-.6-.8 0-.533-.267-.8-.8-.8s-.8-.267-.8-.8-.267-.8-.8-.8-.8-.267-.8-.8-.267-.8-.8-.8-.8-.267-.8-.8-.267-.8-.8-.8-.8-.267-.8-.8-.267-.8-.8-.8-.8-.267-.8-.8-.267-.8-.8-.8-.8-.267-.8-.8-.267-.8-.8-.8c-.44 0-.8-.258-.8-.573 0-.315-.36-.687-.8-.827-.44-.14-.8-.512-.8-.827 0-.315-.36-.573-.8-.573-.533 0-.8-.267-.8-.8s-.267-.8-.8-.8-.8-.267-.8-.8c0-.444-.267-.8-.6-.8-.333 0-.6-.356-.6-.8 0-.533-.267-.8-.8-.8s-.8-.267-.8-.8c0-.762-.267-.8-5.6-.8-5.333 0-5.6.038-5.6.8m-27.631 184.1c-.342 1.12-.251 1.5.259 1.077.31-.257.465-.627.344-.822-.207-.335-.536-.474-.603-.255"/><path fill="#fccc04" d="M180.4 234.4c0 .533-.267.8-.8.8s-.8.267-.8.8-.267.8-.8.8-.8.267-.8.8-.267.8-.8.8-.8.267-.8.8c0 .444-.267.8-.6.8-.333 0-.6.356-.6.8 0 .533-.267.8-.8.8-.444 0-.8.267-.8.6 0 .333-.356.6-.8.6-.533 0-.8.267-.8.8s-.267.8-.8.8-.8.267-.8.8-.267.8-.8.8-.8.267-.8.8-.267.8-.8.8-.8.267-.8.8-.267.8-.8.8-.8.267-.8.8-.267.8-.8.8-.8.267-.8.8-.267.8-.8.8-.8.267-.8.8-.267.8-.8.8-.8.267-.8.8c0 .44-.258.8-.573.8-.315 0-.687.36-.827.8-.14.44-.512.8-.827.8a.575.575 0 0 0-.573.573c0 .315-.36.687-.8.827-.44.14-.8.512-.8.827 0 .315-.36.573-.8.573-.533 0-.8.267-.8.8s-.267.8-.8.8-.8.267-.8.8-.267.8-.8.8-.8.267-.8.8-.267.8-.8.8-.8.267-.8.8-.267.8-.8.8-.8.267-.8.8-.267.8-.8.8-.8.267-.8.8-.267.8-.8.8-.8.267-.8.8-.267.8-.8.8-.8.267-.8.8c0 .444-.267.8-.6.8-.333 0-.6.356-.6.8 0 .533-.267.8-.8.8-.444 0-.8.267-.8.6 0 .333-.356.6-.8.6-.533 0-.8.267-.8.8s-.267.8-.8.8-.8.267-.8.8-.267.8-.8.8-.8.267-.8.8-.267.8-.8.8-.8.267-.8.8-.267.8-.8.8-.8.267-.8.8-.267.8-.8.8-.8.267-.8.8-.267.8-.8.8-.8.267-.8.8-.267.8-.8.8-.8.267-.8.8-.267.8-.8.8-.8.267-.8.8c0 .444-.267.8-.6.8-.333 0-.6.356-.6.8 0 .533-.267.8-.8.8-.444 0-.8.267-.8.6 0 .333-.356.6-.8.6-.533 0-.8.267-.8.8s-.267.8-.8.8-.8.267-.8.8-.267.8-.8.8-.8.267-.8.8-.267.8-.8.8-.8.267-.8.8-.267.8-.8.8-.8.267-.8.8-.267.8-.8.8-.8.267-.8.8-.267.8-.8.8-.8.267-.8.8-.267.8-.8.8-.8.267-.8.8c0 .44-.258.8-.573.8-.315 0-.687.36-.827.8-.14.44-.512.8-.827.8-.446 0-.573.663-.573 3 0 2.337.127 3 .573 3 .315 0 .687.36.827.8.14.44.512.8.827.8.315 0 .573.36.573.8 0 .533.267.8.8.8s.8.267.8.8.267.8.8.8.8.267.8.8.267.8.8.8.8.267.8.8.267.8.8.8.8.267.8.8.267.8.8.8c.465 0 .8.267.8.637 0 .351.36.732.8.847.44.115.8.458.8.763 0 .304.36.553.8.553.533 0 .8.267.8.8s.267.8.8.8.8.267.8.8.267.8.8.8.8.267.8.8c0 .444.267.8.6.8.33 0 .6.287.6.637 0 .351.36.732.8.847.443.116.8.546.8.963 0 .486.283.753.8.753.533 0 .8.267.8.8s.267.8.8.8.8.267.8.8.267.8.8.8.8.267.8.8.267.8.8.8.8.267.8.8.267.8.8.8c.44 0 .8.258.8.573 0 .315.36.687.8.827.44.14.8.512.8.827 0 .315.36.573.8.573.533 0 .8.267.8.8s.267.8.8.8.8.267.8.8.267.8.8.8.8.267.8.8c0 .444.267.8.6.8.333 0 .6.356.6.8 0 .533.267.8.8.8s.8.267.8.8.267.8.8.8.8.267.8.8.267.8.8.8.8.267.8.8.267.8.8.8.8.267.8.8.267.8.8.8.8.267.8.8.267.8.8.8c.444 0 .8.267.8.6 0 .333.356.6.8.6.533 0 .8.267.8.8s.267.8.8.8.8.267.8.8.267.8.8.8.8.267.8.8c0 .44.258.8.573.8.315 0 .687.36.827.8.14.44.512.8.827.8.315 0 .573.36.573.8 0 .533.267.8.8.8s.8.267.8.8.267.8.8.8.8.267.8.8.267.8.8.8.8.267.8.8.267.8.8.8.8.267.8.8c0 .517.267.8.753.8.417 0 .847.357.963.8.115.44.496.8.847.8.35 0 .637.27.637.6 0 .333.356.6.8.6.533 0 .8.267.8.8s.267.8.8.8.8.267.8.8.267.8.8.8.8.267.8.8c0 .444.267.8.6.8.33 0 .6.287.6.637 0 .351.36.732.8.847.443.116.8.546.8.963 0 .486.283.753.8.753.533 0 .8.267.8.8s.267.8.8.8.8.267.8.8.267.8.8.8.8.267.8.8.267.8.8.8.8.267.8.8.267.8.8.8c.44 0 .8.258.8.573 0 .315.36.687.8.827.44.14.8.512.8.827 0 .315.36.573.8.573.533 0 .8.267.8.8s.267.8.8.8.8.267.8.8c0 .648.267.8 1.4.8s1.4.152 1.4.8c0 .533.267.8.8.8s.8.267.8.8c0 .756.267.8 4.8.8 4.533 0 4.8-.044 4.8-.8 0-.667.267-.8 1.6-.8 1.333 0 1.6-.133 1.6-.8 0-.444.267-.8.6-.8.333 0 .6-.356.6-.8 0-.533.267-.8.8-.8s.8-.267.8-.8.267-.8.8-.8c.44 0 .8-.258.8-.573 0-.315.36-.687.8-.827.44-.14.8-.512.8-.827 0-.315.36-.573.8-.573.533 0 .8-.267.8-.8s.267-.8.8-.8.8-.267.8-.8.267-.8.8-.8.8-.267.8-.8.267-.8.8-.8.8-.267.8-.8.267-.8.8-.8.8-.267.8-.8.267-.8.8-.8.8-.267.8-.8.267-.8.8-.8.8-.267.8-.8c0-.444.267-.8.6-.8.333 0 .6-.356.6-.8 0-.533.267-.8.8-.8s.8-.267.8-.8.267-.8.8-.8c.444 0 .8-.267.8-.6 0-.333.356-.6.8-.6.533 0 .8-.267.8-.8s.267-.8.8-.8.8-.267.8-.8.267-.8.8-.8.8-.267.8-.8.267-.8.8-.8.8-.267.8-.8.267-.8.8-.8.8-.267.8-.8.267-.8.8-.8.8-.267.8-.8.267-.8.8-.8.8-.267.8-.8c0-.44.258-.8.573-.8.315 0 .687-.36.827-.8.14-.44.512-.8.827-.8.315 0 .573-.36.573-.8 0-.533.267-.8.8-.8s.8-.267.8-.8.267-.8.8-.8c.444 0 .8-.267.8-.6 0-.333.356-.6.8-.6.533 0 .8-.267.8-.8s.267-.8.8-.8.8-.267.8-.8.267-.8.8-.8.8-.267.8-.8.267-.8.8-.8.8-.267.8-.8.267-.8.8-.8.8-.267.8-.8.267-.8.8-.8.8-.267.8-.8.267-.8.8-.8.8-.267.8-.8c0-.444.267-.8.6-.8.333 0 .6-.356.6-.8 0-.533.267-.8.8-.8s.8-.267.8-.8.267-.8.8-.8c.44 0 .8-.258.8-.573 0-.315.36-.687.8-.827.44-.14.8-.512.8-.827 0-.315.36-.573.8-.573.533 0 .8-.267.8-.8s.267-.8.8-.8.8-.267.8-.8.267-.8.8-.8.8-.267.8-.8.267-.8.8-.8.8-.267.8-.8.267-.8.8-.8.8-.267.8-.8.267-.8.8-.8.8-.267.8-.8.267-.8.8-.8.8-.267.8-.8c0-.444.267-.8.6-.8.333 0 .6-.356.6-.8 0-.533.267-.8.8-.8s.8-.267.8-.8.267-.8.8-.8c.444 0 .8-.267.8-.6 0-.333.356-.6.8-.6.533 0 .8-.267.8-.8s.267-.8.8-.8.8-.267.8-.8.267-.8.8-.8.8-.267.8-.8.267-.8.8-.8.8-.267.8-.8.267-.8.8-.8.8-.267.8-.8.267-.8.8-.8.8-.267.8-.8.267-.8.8-.8.8-.267.8-.8c0-.44.251-.8.557-.8.736 0 1.043-.884 1.043-3s-.307-3-1.043-3c-.306 0-.557-.36-.557-.8 0-.533-.267-.8-.8-.8s-.8-.267-.8-.8-.267-.8-.8-.8-.8-.267-.8-.8-.267-.8-.8-.8-.8-.267-.8-.8-.267-.8-.8-.8-.8-.267-.8-.8-.267-.8-.8-.8-.8-.267-.8-.8-.267-.8-.8-.8-.8-.267-.8-.8-.267-.8-.8-.8-.8-.267-.8-.8-.267-.8-.8-.8-.8-.267-.8-.8-.267-.8-.8-.8c-.444 0-.8-.267-.8-.6 0-.33-.27-.6-.6-.6-.333 0-.6-.356-.6-.8 0-.533-.267-.8-.8-.8s-.8-.267-.8-.8-.267-.8-.8-.8-.8-.267-.8-.8-.267-.8-.8-.8-.8-.267-.8-.8-.267-.8-.8-.8-.8-.267-.8-.8-.267-.8-.8-.8-.8-.267-.8-.8-.267-.8-.8-.8-.8-.267-.8-.8-.267-.8-.8-.8-.8-.267-.8-.8-.267-.8-.8-.8-.8-.267-.8-.8-.267-.8-.8-.8-.8-.267-.8-.8-.267-.8-.8-.8c-.444 0-.8-.267-.8-.6 0-.33-.27-.6-.6-.6-.333 0-.6-.356-.6-.8 0-.533-.267-.8-.8-.8s-.8-.267-.8-.8-.267-.8-.8-.8-.8-.267-.8-.8-.267-.8-.8-.8-.8-.267-.8-.8-.267-.8-.8-.8-.8-.267-.8-.8-.267-.8-.8-.8-.8-.267-.8-.8-.267-.8-.8-.8-.8-.267-.8-.8-.267-.8-.8-.8-.8-.267-.8-.8-.267-.8-.8-.8-.8-.267-.8-.8-.267-.8-.8-.8c-.44 0-.8-.172-.8-.382 0-.496-1.922-2.418-2.418-2.418-.21 0-.382-.36-.382-.8 0-.533-.267-.8-.8-.8s-.8-.267-.8-.8-.267-.8-.8-.8-.8-.267-.8-.8-.267-.8-.8-.8-.8-.267-.8-.8-.267-.8-.8-.8-.8-.267-.8-.8-.267-.8-.8-.8-.8-.267-.8-.8-.267-.8-.8-.8-.8-.267-.8-.8-.267-.8-.8-.8-.8-.267-.8-.8-.267-.8-.8-.8-.8-.267-.8-.8-.267-.8-.8-.8c-.444 0-.8-.267-.8-.6 0-.33-.27-.6-.6-.6-.333 0-.6-.356-.6-.8 0-.533-.267-.8-.8-.8s-.8-.267-.8-.8-.267-.8-.8-.8-.8-.267-.8-.8-.267-.8-.8-.8-.8-.267-.8-.8-.267-.8-.8-.8-.8-.267-.8-.8c0-.711-.267-.8-2.4-.8s-2.4.089-2.4.8c0 .533-.267.8-.8.8s-.8.267-.8.8-.267.8-.8.8-.8.267-.8.8c0 .44-.258.8-.573.8-.315 0-.687.36-.827.8-.14.44-.512.8-.827.8-.315 0-.573.36-.573.8 0 .533-.267.8-.8.8-.444 0-.8.267-.8.6 0 .505-.889.6-5.6.6-4.711 0-5.6-.095-5.6-.6 0-.333-.356-.6-.8-.6-.533 0-.8-.267-.8-.8 0-.44-.258-.8-.573-.8-.315 0-.687-.36-.827-.8-.14-.44-.512-.8-.827-.8-.315 0-.573-.36-.573-.8 0-.533-.267-.8-.8-.8s-.8-.267-.8-.8-.267-.8-.8-.8-.8-.267-.8-.8c0-.733-.267-.8-3.2-.8-2.933 0-3.2.067-3.2.8"/><path fill="#fc141c" d="M307.2 107.773c0 .315-.36.687-.8.827-.44.14-.8.512-.8.827 0 .315-.36.573-.8.573-.533 0-.8.267-.8.8s-.267.8-.8.8-.8.267-.8.8-.267.8-.8.8-.8.267-.8.8-.267.8-.8.8-.8.267-.8.8-.267.8-.8.8-.8.267-.8.8-.267.8-.8.8-.8.267-.8.8-.267.8-.8.8-.8.267-.8.8-.267.8-.8.8-.8.267-.8.8c0 .444-.267.8-.6.8-.333 0-.6.356-.6.8 0 .533-.267.8-.8.8-.444 0-.8.267-.8.6 0 .333-.356.6-.8.6-.533 0-.8.267-.8.8s-.267.8-.8.8-.8.267-.8.8-.267.8-.8.8-.8.267-.8.8-.267.8-.8.8-.8.267-.8.8-.267.8-.8.8-.8.267-.8.8-.267.8-.8.8-.8.267-.8.8-.267.8-.8.8-.8.267-.8.8-.267.8-.8.8-.8.267-.8.8-.267.8-.8.8-.8.267-.8.8c0 .444-.267.8-.6.8-.333 0-.6.356-.6.8 0 .533-.267.8-.8.8-.444 0-.8.267-.8.6 0 .333-.356.6-.8.6-.533 0-.8.267-.8.8s-.267.8-.8.8-.8.267-.8.8-.267.8-.8.8-.8.267-.8.8-.267.8-.8.8-.8.267-.8.8-.267.8-.8.8-.8.267-.8.8-.267.8-.8.8-.8.267-.8.8-.267.8-.8.8-.8.267-.8.8-.267.8-.8.8-.8.267-.8.8c0 .44-.258.8-.573.8-.315 0-.687.36-.827.8-.14.44-.512.8-.827.8a.575.575 0 0 0-.573.573c0 .315-.36.687-.8.827-.44.14-.8.512-.8.827 0 .315-.36.573-.8.573-.533 0-.8.267-.8.8s-.267.8-.8.8-.8.267-.8.8-.267.8-.8.8-.8.267-.8.8-.267.8-.8.8-.8.267-.8.8-.267.8-.8.8-.8.267-.8.8-.267.8-.8.8-.8.267-.8.8-.267.8-.8.8-.8.267-.8.8-.267.8-.8.8-.8.267-.8.8c0 .444-.267.8-.6.8-.333 0-.6.356-.6.8 0 .533-.267.8-.8.8-.444 0-.8.267-.8.6 0 .333-.356.6-.8.6-.533 0-.8.267-.8.8s-.267.8-.8.8-.8.267-.8.8-.267.8-.8.8-.8.267-.8.8-.267.8-.8.8-.8.267-.8.8-.267.8-.8.8c-.733 0-.8.267-.8 3.2 0 2.933.067 3.2.8 3.2.533 0 .8.267.8.8s.267.8.8.8c.44 0 .8.258.8.573 0 .315.36.687.8.827.44.14.8.512.8.827 0 .315.36.573.8.573.533 0 .8.267.8.8s.267.8.8.8.8.267.8.8.267.8.8.8.8.267.8.8c0 .444.267.8.6.8.493 0 .6.711.6 4s-.107 4-.6 4c-.333 0-.6.356-.6.8 0 .533-.267.8-.8.8-.44 0-.8.258-.8.573 0 .315-.36.687-.8.827-.44.14-.8.512-.8.827 0 .315-.36.573-.8.573-.533 0-.8.267-.8.8s-.267.8-.8.8-.8.267-.8.8-.267.8-.8.8-.8.267-.8.8-.267.8-.8.8c-.733 0-.8.267-.8 3.2 0 2.933.067 3.2.8 3.2.533 0 .8.267.8.8 0 .517.267.8.753.8.417 0 .847.357.963.8.115.44.496.8.847.8.35 0 .637.27.637.6 0 .333.356.6.8.6.533 0 .8.267.8.8s.267.8.8.8.8.267.8.8.267.8.8.8.8.267.8.8c0 .444.267.8.6.8.333 0 .6.356.6.8 0 .533.267.8.8.8s.8.267.8.8.267.8.8.8.8.267.8.8.267.8.8.8.8.267.8.8.267.8.8.8.8.267.8.8.267.8.8.8.8.267.8.8.267.8.8.8c.44 0 .8.258.8.573 0 .315.36.687.8.827.44.14.8.512.8.827 0 .315.36.573.8.573.533 0 .8.267.8.8s.267.8.8.8.8.267.8.8c0 .44.258.8.573.8.315 0 .687.36.827.8.14.44.512.8.827.8.315 0 .573.36.573.8 0 .533.267.8.8.8s.8.267.8.8.267.8.8.8.8.267.8.8.267.8.8.8.8.267.8.8.267.8.8.8.8.267.8.8.267.8.8.8.8.267.8.8.267.8.8.8c.444 0 .8.267.8.6 0 .333.356.6.8.6.533 0 .8.267.8.8s.267.8.8.8.8.267.8.8.267.8.8.8.8.267.8.8c0 .444.267.8.6.8.33 0 .6.287.6.637 0 .351.36.732.8.847.443.116.8.546.8.963 0 .486.283.753.8.753.533 0 .8.267.8.8s.267.8.8.8.8.267.8.8.267.8.8.8.8.267.8.8.267.8.8.8.8.267.8.8.267.8.8.8c.465 0 .8.267.8.637 0 .351.36.732.8.847.44.115.8.458.8.763 0 .304.36.553.8.553.533 0 .8.267.8.8s.267.8.8.8.8.267.8.8.267.8.8.8.8.267.8.8c0 .444.267.8.6.8.333 0 .6.356.6.8 0 .533.267.8.8.8s.8.267.8.8.267.8.8.8.8.267.8.8.267.8.8.8.8.267.8.8.267.8.8.8.8.267.8.8.267.8.8.8.8.267.8.8.267.8.8.8c.44 0 .8.258.8.573 0 .315.36.687.8.827.44.14.8.512.8.827 0 .315.36.573.8.573.533 0 .8.267.8.8 0 .703.267.8 2.2.8 1.933 0 2.2-.097 2.2-.8 0-.533.267-.8.8-.8.44 0 .8-.258.8-.573 0-.315.36-.687.8-.827.44-.14.8-.512.8-.827 0-.315.36-.573.8-.573.533 0 .8-.267.8-.8s.267-.8.8-.8.8-.267.8-.8.267-.8.8-.8.8-.267.8-.8.267-.8.8-.8.8-.267.8-.8.267-.8.8-.8.8-.267.8-.8.267-.8.8-.8.8-.267.8-.8.267-.8.8-.8.8-.267.8-.8c0-.444.267-.8.6-.8.333 0 .6-.356.6-.8 0-.533.267-.8.8-.8s.8-.267.8-.8.267-.8.8-.8c.444 0 .8-.267.8-.6 0-.333.356-.6.8-.6.533 0 .8-.267.8-.8s.267-.8.8-.8.8-.267.8-.8.267-.8.8-.8.8-.267.8-.8.267-.8.8-.8.8-.267.8-.8.267-.8.8-.8.8-.267.8-.8.267-.8.8-.8.8-.267.8-.8.267-.8.8-.8.8-.267.8-.8c0-.44.258-.8.573-.8.315 0 .687-.36.827-.8.14-.44.512-.8.827-.8.315 0 .573-.36.573-.8 0-.533.267-.8.8-.8s.8-.267.8-.8.267-.8.8-.8c.444 0 .8-.267.8-.6 0-.333.356-.6.8-.6.533 0 .8-.267.8-.8s.267-.8.8-.8.8-.267.8-.8.267-.8.8-.8.8-.267.8-.8.267-.8.8-.8.8-.267.8-.8.267-.8.8-.8.8-.267.8-.8.267-.8.8-.8.8-.267.8-.8.267-.8.8-.8.8-.267.8-.8c0-.444.267-.8.6-.8.333 0 .6-.356.6-.8 0-.533.267-.8.8-.8s.8-.267.8-.8.267-.8.8-.8c.44 0 .8-.258.8-.573 0-.315.36-.687.8-.827.44-.14.8-.512.8-.827 0-.315.36-.573.8-.573.533 0 .8-.267.8-.8s.267-.8.8-.8.8-.267.8-.8.267-.8.8-.8.8-.267.8-.8.267-.8.8-.8.8-.267.8-.8.267-.8.8-.8.8-.267.8-.8.267-.8.8-.8.8-.267.8-.8.267-.8.8-.8.8-.267.8-.8c0-.444.267-.8.6-.8.333 0 .6-.356.6-.8 0-.533.267-.8.8-.8s.8-.267.8-.8.267-.8.8-.8c.444 0 .8-.267.8-.6 0-.333.356-.6.8-.6.533 0 .8-.267.8-.8s.267-.8.8-.8.8-.267.8-.8.267-.8.8-.8.8-.267.8-.8.267-.8.8-.8.8-.267.8-.8.267-.8.8-.8.8-.267.8-.8.267-.8.8-.8.8-.267.8-.8.267-.8.8-.8.8-.267.8-.8c0-.44.258-.8.573-.8.315 0 .687-.36.827-.8.14-.44.512-.8.827-.8.315 0 .573-.36.573-.8 0-.533.267-.8.8-.8s.8-.267.8-.8.267-.8.8-.8c.444 0 .8-.267.8-.6 0-.333.356-.6.8-.6.533 0 .8-.267.8-.8s.267-.8.8-.8c.762 0 .8-.267.8-5.6 0-5.333-.038-5.6-.8-5.6-.533 0-.8-.267-.8-.8s-.267-.8-.8-.8c-.444 0-.8-.267-.8-.6 0-.333-.356-.6-.8-.6-.533 0-.8-.267-.8-.8s-.267-.8-.8-.8-.8-.267-.8-.8c0-.44-.258-.8-.573-.8-.315 0-.687-.36-.827-.8-.14-.44-.512-.8-.827-.8-.315 0-.573-.36-.573-.8 0-.533-.267-.8-.8-.8s-.8-.267-.8-.8-.267-.8-.8-.8-.8-.267-.8-.8-.267-.8-.8-.8-.8-.267-.8-.8-.267-.8-.8-.8-.8-.267-.8-.8-.267-.8-.8-.8-.8-.267-.8-.8-.267-.8-.8-.8-.8-.267-.8-.8-.267-.8-.8-.8c-.444 0-.8-.267-.8-.6 0-.333-.356-.6-.8-.6-.533 0-.8-.267-.8-.8s-.267-.8-.8-.8-.8-.267-.8-.8c0-.444-.267-.8-.6-.8-.333 0-.6-.356-.6-.8 0-.533-.267-.8-.8-.8s-.8-.267-.8-.8-.267-.8-.8-.8-.8-.267-.8-.8-.267-.8-.8-.8-.8-.267-.8-.8-.267-.8-.8-.8-.8-.267-.8-.8-.267-.8-.8-.8-.8-.267-.8-.8-.267-.8-.8-.8-.8-.267-.8-.8-.267-.8-.8-.8c-.44 0-.8-.258-.8-.573 0-.315-.36-.687-.8-.827-.44-.14-.8-.512-.8-.827 0-.315-.36-.573-.8-.573-.533 0-.8-.267-.8-.8s-.267-.8-.8-.8-.8-.267-.8-.8c0-.444-.267-.8-.6-.8-.333 0-.6-.356-.6-.8 0-.533-.267-.8-.8-.8s-.8-.267-.8-.8-.267-.8-.8-.8-.8-.267-.8-.8-.267-.8-.8-.8-.8-.267-.8-.8-.267-.8-.8-.8-.8-.267-.8-.8-.267-.8-.8-.8-.8-.267-.8-.8-.267-.8-.8-.8-.8-.267-.8-.8-.267-.8-.8-.8c-.444 0-.8-.267-.8-.6 0-.333-.356-.6-.8-.6-.533 0-.8-.267-.8-.8s-.267-.8-.8-.8-.8-.267-.8-.8c0-.44-.258-.8-.573-.8-.315 0-.687-.36-.827-.8-.14-.44-.512-.8-.827-.8-.315 0-.573-.36-.573-.8 0-.533-.267-.8-.8-.8s-.8-.267-.8-.8-.267-.8-.8-.8-.8-.267-.8-.8-.267-.8-.8-.8-.8-.267-.8-.8-.267-.8-.8-.8-.8-.267-.8-.8-.267-.8-.8-.8-.8-.267-.8-.8-.267-.8-.8-.8-.8-.267-.8-.8-.267-.8-.8-.8c-.444 0-.8-.267-.8-.6 0-.333-.356-.6-.8-.6-.533 0-.8-.267-.8-.8s-.267-.8-.8-.8-.8-.267-.8-.8c0-.444-.267-.8-.6-.8-.333 0-.6-.356-.6-.8 0-.533-.267-.8-.8-.8s-.8-.267-.8-.8-.267-.8-.8-.8-.8-.267-.8-.8-.267-.8-.8-.8-.8-.267-.8-.8-.267-.8-.8-.8-.8-.267-.8-.8-.267-.8-.8-.8-.8-.267-.8-.8-.267-.8-.8-.8-.8-.267-.8-.8-.267-.8-.8-.8c-.44 0-.8-.258-.8-.573 0-.315-.36-.687-.8-.827-.44-.14-.8-.512-.8-.827 0-.428-.557-.573-2.2-.573-1.643 0-2.2.145-2.2.573"/><path fill="#c07088" d="M166.56 186.594c0 1.052.401 1.316.864.568.149-.241.015-.694-.297-1.006-.489-.49-.567-.43-.567.438"/></g><animateTransform additive="sum" attributeName="transform" fill="freeze" calcMode="spline" dur="1s" href="#b" keySplines="0.5 0.35 0.15 1;0.5 0.35 0.15 1" keyTimes="0;0.5;1" repeatCount="1" type="rotate" values="0 79.9912 79.9923;0 79.9912 79.9923;90 79.9912 79.9923" />
  <animateTransform additive="sum" attributeName="transform" fill="freeze" calcMode="spline" dur="1s" href="#b" keySplines="0.5 0.35 0.15 1;0.5 0.35 0.15 1" keyTimes="0;0.5;1" repeatCount="1" type="translate" values="79.9912 79.9923;79.9912 79.9923;79.9912 79.9923" />
  <animateTransform additive="sum" attributeName="transform" fill="freeze" calcMode="spline" dur="1s" href="#b" keySplines="0.5 0.35 0.15 1;0.5 0.35 0.15 1" keyTimes="0;0.5;1" repeatCount="1" type="scale" values="1 1;1 1;0.5625 0.5625" />
  <animateTransform additive="sum" attributeName="transform" fill="freeze" calcMode="spline" dur="1s" href="#b" keySplines="0.5 0.35 0.15 1;0.5 0.35 0.15 1" keyTimes="0;0.5;1" repeatCount="1" type="translate" values="-79.9912 -79.9923;-79.9912 -79.9923;-79.9912 -79.9923" />
  <animate attributeName="opacity" fill="freeze" calcMode="spline" dur="1s" href="#b" keySplines="0.5 0.35 0.15 1;0.5 0.35 0.15 1" keyTimes="0;0.5;1" repeatCount="1" values="0;0;1" />
  <animateTransform additive="sum" fill="freeze" attributeName="transform" calcMode="spline" dur="1s" href="#c" keySplines="0.5 0.35 0.15 1;0.5 0.35 0.15 1" keyTimes="0;0.5;1" repeatCount="1" type="translate" values="40 40.0001;40 40.0001;40 40.0001" />
  <animateTransform additive="sum" fill="freeze" attributeName="transform" calcMode="spline" dur="1s" href="#c" keySplines="0.5 0.35 0.15 1;0.5 0.35 0.15 1" keyTimes="0;0.5;1" repeatCount="1" type="scale" values="0.3 0.3;2 2;0.56 0.56" />
  <animateTransform additive="sum" fill="freeze" attributeName="transform" calcMode="spline" dur="1s" href="#c" keySplines="0.5 0.35 0.15 1;0.5 0.35 0.15 1" keyTimes="0;0.5;1" repeatCount="1" type="translate" values="-40 -40.0001;-40 -40.0001;-40 -40.0001" />
  <animate attributeName="opacity" fill="freeze" calcMode="spline" dur="1s" href="#c" keySplines="0.5 0.35 0.15 1;0.5 0.35 0.15 1" keyTimes="0;0.5;1" repeatCount="1" values="0;1;1" /></svg>